<svg width="50" height="50" viewBox="0 0 50 50" fill="none" xmlns="http://www.w3.org/2000/svg">
<g clip-path="url(#clip0_19_47)">
<path d="M12.5 10C12.5 8.61934 13.6193 7.5 15 7.5H47.5C48.8807 7.5 50 8.61934 50 10C50 11.3807 48.8807 12.5 47.5 12.5H15C13.6193 12.5 12.5 11.3806 12.5 10ZM47.5 22.5H2.5C1.11934 22.5 0 23.6194 0 25C0 26.3807 1.11934 27.5 2.5 27.5H47.5C48.8807 27.5 50 26.3807 50 25C50 23.6194 48.8807 22.5 47.5 22.5ZM47.5 37.5H25C23.6194 37.5 22.5 38.6193 22.5 40C22.5 41.3806 23.6194 42.5 25 42.5H47.5C48.8807 42.5 50 41.3806 50 40C50 38.6193 48.8807 37.5 47.5 37.5Z" fill="white"/>
</g>
<defs>
<clipPath id="clip0_19_47">
<rect width="50" height="50" fill="white"/>
</clipPath>
</defs>
</svg>
