<svg width="238" height="60" viewBox="0 0 238 60" fill="none" xmlns="http://www.w3.org/2000/svg">
<path d="M81.4911 20.8255V23.6505H76.8411V38.2755H73.3411V23.6505H68.6911V20.8255H81.4911ZM87.5448 26.5755C87.9948 25.8421 88.5782 25.2671 89.2948 24.8505C90.0282 24.4338 90.8615 24.2255 91.7948 24.2255V27.9005H90.8698C89.7698 27.9005 88.9365 28.1588 88.3698 28.6755C87.8198 29.1921 87.5448 30.0921 87.5448 31.3755V38.2755H84.0448V24.4255H87.5448V26.5755ZM93.2522 31.3005C93.2522 29.9005 93.5272 28.6588 94.0772 27.5755C94.6439 26.4921 95.4022 25.6588 96.3522 25.0755C97.3189 24.4921 98.3939 24.2005 99.5772 24.2005C100.611 24.2005 101.511 24.4088 102.277 24.8255C103.061 25.2421 103.686 25.7671 104.152 26.4005V24.4255H107.677V38.2755H104.152V36.2505C103.702 36.9005 103.077 37.4421 102.277 37.8755C101.494 38.2921 100.586 38.5005 99.5522 38.5005C98.3856 38.5005 97.3189 38.2005 96.3522 37.6005C95.4022 37.0005 94.6439 36.1588 94.0772 35.0755C93.5272 33.9755 93.2522 32.7171 93.2522 31.3005ZM104.152 31.3505C104.152 30.5005 103.986 29.7755 103.652 29.1755C103.319 28.5588 102.869 28.0921 102.302 27.7755C101.736 27.4421 101.127 27.2755 100.477 27.2755C99.8272 27.2755 99.2272 27.4338 98.6772 27.7505C98.1272 28.0671 97.6772 28.5338 97.3272 29.1505C96.9939 29.7505 96.8272 30.4671 96.8272 31.3005C96.8272 32.1338 96.9939 32.8671 97.3272 33.5005C97.6772 34.1171 98.1272 34.5921 98.6772 34.9255C99.2439 35.2588 99.8439 35.4255 100.477 35.4255C101.127 35.4255 101.736 35.2671 102.302 34.9505C102.869 34.6171 103.319 34.1505 103.652 33.5505C103.986 32.9338 104.152 32.2005 104.152 31.3505ZM116.871 35.0505L120.371 24.4255H124.096L118.971 38.2755H114.721L109.621 24.4255H113.371L116.871 35.0505ZM138.936 31.0505C138.936 31.5505 138.903 32.0005 138.836 32.4005H128.711C128.795 33.4005 129.145 34.1838 129.761 34.7505C130.378 35.3171 131.136 35.6005 132.036 35.6005C133.336 35.6005 134.261 35.0421 134.811 33.9255H138.586C138.186 35.2588 137.42 36.3588 136.286 37.2255C135.153 38.0755 133.761 38.5005 132.111 38.5005C130.778 38.5005 129.578 38.2088 128.511 37.6255C127.461 37.0255 126.636 36.1838 126.036 35.1005C125.453 34.0171 125.161 32.7671 125.161 31.3505C125.161 29.9171 125.453 28.6588 126.036 27.5755C126.62 26.4921 127.436 25.6588 128.486 25.0755C129.536 24.4921 130.745 24.2005 132.111 24.2005C133.428 24.2005 134.603 24.4838 135.636 25.0505C136.686 25.6171 137.495 26.4255 138.061 27.4755C138.645 28.5088 138.936 29.7005 138.936 31.0505ZM135.311 30.0505C135.295 29.1505 134.97 28.4338 134.336 27.9005C133.703 27.3505 132.928 27.0755 132.011 27.0755C131.145 27.0755 130.411 27.3421 129.811 27.8755C129.228 28.3921 128.87 29.1171 128.736 30.0505H135.311ZM144.991 19.7755V38.2755H141.491V19.7755H144.991ZM158.349 29.3255C159.332 29.5088 160.141 30.0005 160.774 30.8005C161.407 31.6005 161.724 32.5171 161.724 33.5505C161.724 34.4838 161.491 35.3088 161.024 36.0255C160.574 36.7255 159.916 37.2755 159.049 37.6755C158.182 38.0755 157.157 38.2755 155.974 38.2755H148.449V20.8255H155.649C156.832 20.8255 157.849 21.0171 158.699 21.4005C159.566 21.7838 160.216 22.3171 160.649 23.0005C161.099 23.6838 161.324 24.4588 161.324 25.3255C161.324 26.3421 161.049 27.1921 160.499 27.8755C159.966 28.5588 159.249 29.0421 158.349 29.3255ZM151.949 28.0255H155.149C155.982 28.0255 156.624 27.8421 157.074 27.4755C157.524 27.0921 157.749 26.5505 157.749 25.8505C157.749 25.1505 157.524 24.6088 157.074 24.2255C156.624 23.8421 155.982 23.6505 155.149 23.6505H151.949V28.0255ZM155.474 35.4255C156.324 35.4255 156.982 35.2255 157.449 34.8255C157.932 34.4255 158.174 33.8588 158.174 33.1255C158.174 32.3755 157.924 31.7921 157.424 31.3755C156.924 30.9421 156.249 30.7255 155.399 30.7255H151.949V35.4255H155.474ZM177.589 24.4255V38.2755H174.064V36.5255C173.614 37.1255 173.022 37.6005 172.289 37.9505C171.572 38.2838 170.789 38.4505 169.939 38.4505C168.855 38.4505 167.897 38.2255 167.064 37.7755C166.23 37.3088 165.572 36.6338 165.089 35.7505C164.622 34.8505 164.389 33.7838 164.389 32.5505V24.4255H167.889V32.0505C167.889 33.1505 168.164 34.0005 168.714 34.6005C169.264 35.1838 170.014 35.4755 170.964 35.4755C171.93 35.4755 172.689 35.1838 173.239 34.6005C173.789 34.0005 174.064 33.1505 174.064 32.0505V24.4255H177.589ZM188.717 24.2255C190.367 24.2255 191.7 24.7505 192.717 25.8005C193.734 26.8338 194.242 28.2838 194.242 30.1505V38.2755H190.742V30.6255C190.742 29.5255 190.467 28.6838 189.917 28.1005C189.367 27.5005 188.617 27.2005 187.667 27.2005C186.7 27.2005 185.934 27.5005 185.367 28.1005C184.817 28.6838 184.542 29.5255 184.542 30.6255V38.2755H181.042V24.4255H184.542V26.1505C185.009 25.5505 185.6 25.0838 186.317 24.7505C187.05 24.4005 187.85 24.2255 188.717 24.2255ZM205.245 24.2255C206.895 24.2255 208.229 24.7505 209.245 25.8005C210.262 26.8338 210.77 28.2838 210.77 30.1505V38.2755H207.27V30.6255C207.27 29.5255 206.995 28.6838 206.445 28.1005C205.895 27.5005 205.145 27.2005 204.195 27.2005C203.229 27.2005 202.462 27.5005 201.895 28.1005C201.345 28.6838 201.07 29.5255 201.07 30.6255V38.2755H197.57V24.4255H201.07V26.1505C201.537 25.5505 202.129 25.0838 202.845 24.7505C203.579 24.4005 204.379 24.2255 205.245 24.2255ZM227.349 24.4255L218.774 44.8255H215.049L218.049 37.9255L212.499 24.4255H216.424L219.999 34.1005L223.624 24.4255H227.349Z" fill="white"/>
<rect width="59.4047" height="59.4047" rx="29.7024" fill="#FF385C"/>
<path d="M17.7872 24.0063C18.3649 24.0063 18.8332 23.538 18.8332 22.9604C18.8332 22.3827 18.3649 21.9144 17.7872 21.9144C17.2096 21.9144 16.7413 22.3827 16.7413 22.9604C16.7413 23.538 17.2096 24.0063 17.7872 24.0063Z" fill="white"/>
<path d="M37.2127 27.3116C36.7361 27.3116 36.3497 27.6981 36.3497 28.1746C36.3497 28.6511 36.7361 29.0376 37.2127 29.0376C40.5812 29.0376 43.3218 31.7782 43.3218 35.1466C43.3218 35.6232 43.7083 36.0096 44.1848 36.0096C44.6613 36.0096 45.0478 35.6232 45.0478 35.1466C45.0478 30.8264 41.5331 27.3116 37.2127 27.3116Z" fill="white"/>
<path d="M48.6096 33.6935C47.8975 28.392 43.3443 24.2909 37.852 24.2909H28.5262C28.6807 23.9362 28.8213 23.5729 28.9439 23.2009C29.1054 22.7142 29.1864 22.2059 29.1864 21.6898C29.1864 21.2988 29.1399 20.907 29.0483 20.5195C30.1668 19.779 31.3094 18.8349 32.3874 17.7578C34.0314 16.1129 35.3562 14.3273 36.1165 12.7298C37.2548 10.3384 36.787 9.13019 36.195 8.53727C35.6021 7.94524 34.393 7.47663 32.0016 8.61492C31.754 8.7323 31.501 8.86518 31.2457 9.0102C31.2327 7.02351 30.6476 5.74198 29.5386 5.33895C27.1756 4.4837 24.3604 8.39142 22.8001 12.6953C22.3703 13.8803 22.0389 15.0859 21.8266 16.2225C17.0014 16.8051 13.0574 19.9361 11.5376 24.5325C11.3762 25.0193 11.2951 25.5276 11.2951 26.0437C11.2951 28.2392 12.7243 30.2845 14.7498 31.1605C14.2484 32.4248 13.9946 33.7617 13.9946 35.1468C13.9946 36.7934 14.3632 38.3969 15.0682 39.858H13.1532C11.4591 39.8581 10.0809 41.2363 10.0809 42.9304C10.0809 44.6236 11.4591 46.0019 13.1532 46.0019L37.8521 46.0028C40.751 46.0028 43.4764 44.874 45.5286 42.8234C46.0905 42.2607 46.5824 41.648 47.0009 40.9946C47.3531 41.1016 47.7207 41.1595 48.0927 41.1595C50.1613 41.1595 51.8442 39.4766 51.8442 37.4088C51.8442 35.5154 50.434 33.9464 48.6096 33.6935ZM24.4226 13.2839C26.1063 8.64005 28.3579 6.7474 28.9491 6.96144C29.2236 7.06071 29.6826 7.98064 29.4599 10.1831C28.6237 10.8071 27.7822 11.5371 26.9745 12.345C25.7438 13.5748 24.6995 14.8745 23.9245 16.1336C23.8416 16.1285 23.6294 16.1233 23.6052 16.1233C23.8003 15.2024 24.0765 14.2376 24.4226 13.2839ZM45.8531 39.5499C45.4423 40.2939 44.9245 40.9852 44.3075 41.603C42.5823 43.3273 40.2901 44.2767 37.8521 44.2767H28.3657V44.2758C27.6235 44.2758 27.0194 43.6725 27.0194 42.9303C27.0194 42.1872 27.6235 41.584 28.3657 41.584H32.2717C32.7481 41.584 33.1347 41.1974 33.1347 40.721V39.2591C33.1347 36.8504 35.0938 34.8913 37.5025 34.8913H38.6434C39.1197 34.8913 39.5064 34.5047 39.5064 34.0283C39.5064 33.551 39.1197 33.1653 38.6434 33.1653H37.5025C34.1418 33.1653 31.4087 35.8985 31.4087 39.2591V39.858H28.3657C26.6716 39.858 25.2933 41.2363 25.2933 42.9304C25.2933 43.4128 25.4055 43.8694 25.6049 44.2759H13.1532C12.4111 44.2759 11.807 43.6726 11.807 42.9304C11.807 42.1873 12.4111 41.5841 13.1532 41.5841H16.5561C16.7218 41.5841 16.8893 41.5366 17.0377 41.4366C17.433 41.1707 17.5374 40.6339 17.2716 40.2387C16.2567 38.7327 15.7207 36.9713 15.7207 35.1469C15.7207 33.6987 16.0495 32.3136 16.6985 31.0311C16.9142 30.6065 16.7433 30.087 16.3188 29.8712C16.2523 29.8384 16.1841 29.8151 16.1151 29.7996C15.2478 29.6072 14.4745 29.0988 13.9179 28.423C13.3612 27.7473 13.0212 26.9042 13.0212 26.0437C13.0212 25.7123 13.073 25.3852 13.1765 25.0737C13.891 22.9136 15.2322 21.0942 17.0549 19.8127C18.8837 18.5286 21.1017 17.8493 23.4707 17.8493C23.5319 17.8493 24.0368 17.8718 24.2293 17.9063C24.6004 17.9719 24.9577 17.7898 25.132 17.4791L25.1329 17.48C25.8423 16.2217 26.9297 14.8314 28.1949 13.5653C29.0337 12.7265 29.9045 11.9826 30.7572 11.3706C30.7753 11.3586 30.7926 11.3465 30.809 11.3335C31.4736 10.8597 32.1268 10.467 32.7439 10.1736C34.0591 9.54791 34.7988 9.5816 34.9739 9.75762C35.15 9.93365 35.1845 10.6724 34.5579 11.9885C33.8796 13.4125 32.6756 15.0281 31.1671 16.5367C30.0452 17.6586 28.855 18.62 27.7167 19.3234L27.7245 19.3363C27.3801 19.4675 27.1687 19.7955 27.1687 20.1433C27.1687 20.2451 27.1868 20.3487 27.2248 20.4497C27.381 20.8605 27.4604 21.2773 27.4604 21.6899C27.4604 22.0213 27.4078 22.3484 27.3051 22.6599C27.0652 23.3866 26.7528 24.0778 26.3765 24.7165C26.1348 25.1273 26.2721 25.6563 26.6828 25.8979C26.82 25.9791 26.9711 26.017 27.1196 26.017H37.8521C42.8861 26.017 46.9811 30.1129 46.9811 35.1469C46.981 37.2828 45.8661 39.5224 45.8531 39.5499ZM48.0927 39.4335C48.0073 39.4335 47.9218 39.4274 47.8372 39.4171C48.3653 38.1829 48.6605 36.8521 48.7019 35.4765C49.5217 35.7363 50.1181 36.5035 50.1181 37.4088C50.1181 38.5256 49.2093 39.4335 48.0927 39.4335Z" fill="white"/>
<path d="M48.6096 33.6935C47.8975 28.392 43.3443 24.2909 37.852 24.2909H28.5262C28.6807 23.9362 28.8213 23.5729 28.9439 23.2009C29.1054 22.7142 29.1864 22.2059 29.1864 21.6898C29.1864 21.2988 29.1399 20.907 29.0483 20.5195C30.1668 19.779 31.3094 18.8349 32.3874 17.7578C34.0314 16.1129 35.3562 14.3273 36.1165 12.7298C37.2548 10.3384 36.787 9.13019 36.195 8.53727C35.6021 7.94524 34.393 7.47663 32.0016 8.61492C31.754 8.7323 31.501 8.86518 31.2457 9.0102C31.2327 7.02351 30.6476 5.74198 29.5386 5.33895C27.1756 4.4837 24.3604 8.39142 22.8001 12.6953C22.3703 13.8803 22.0389 15.0859 21.8266 16.2225C17.0014 16.8051 13.0574 19.9361 11.5376 24.5325C11.3762 25.0193 11.2951 25.5276 11.2951 26.0437C11.2951 28.2392 12.7243 30.2845 14.7498 31.1605C14.2484 32.4248 13.9946 33.7617 13.9946 35.1468C13.9946 36.7934 14.3632 38.3969 15.0682 39.858H13.1532C11.4591 39.8581 10.0809 41.2363 10.0809 42.9304C10.0809 44.6236 11.4591 46.0019 13.1532 46.0019L37.8521 46.0028C40.751 46.0028 43.4764 44.874 45.5286 42.8234C46.0905 42.2607 46.5824 41.648 47.0009 40.9946C47.3531 41.1016 47.7207 41.1595 48.0927 41.1595C50.1613 41.1595 51.8442 39.4766 51.8442 37.4088C51.8442 35.5154 50.434 33.9464 48.6096 33.6935ZM24.4226 13.2839C26.1063 8.64005 28.3579 6.7474 28.9491 6.96144C29.2236 7.06071 29.6826 7.98064 29.4599 10.1831C28.6237 10.8071 27.7822 11.5371 26.9745 12.345C25.7438 13.5748 24.6995 14.8745 23.9245 16.1336C23.8416 16.1285 23.6294 16.1233 23.6052 16.1233C23.8003 15.2024 24.0765 14.2376 24.4226 13.2839ZM45.8531 39.5499C45.4423 40.2939 44.9245 40.9852 44.3075 41.603C42.5823 43.3273 40.2901 44.2767 37.8521 44.2767H28.3657V44.2758C27.6235 44.2758 27.0194 43.6725 27.0194 42.9303C27.0194 42.1872 27.6235 41.584 28.3657 41.584H32.2717C32.7481 41.584 33.1347 41.1974 33.1347 40.721V39.2591C33.1347 36.8504 35.0938 34.8913 37.5025 34.8913H38.6434C39.1197 34.8913 39.5064 34.5047 39.5064 34.0283C39.5064 33.551 39.1197 33.1653 38.6434 33.1653H37.5025C34.1418 33.1653 31.4087 35.8985 31.4087 39.2591V39.858H28.3657C26.6716 39.858 25.2933 41.2363 25.2933 42.9304C25.2933 43.4128 25.4055 43.8694 25.6049 44.2759H13.1532C12.4111 44.2759 11.807 43.6726 11.807 42.9304C11.807 42.1873 12.4111 41.5841 13.1532 41.5841H16.5561C16.7218 41.5841 16.8893 41.5366 17.0377 41.4366C17.433 41.1707 17.5374 40.6339 17.2716 40.2387C16.2567 38.7327 15.7207 36.9713 15.7207 35.1469C15.7207 33.6987 16.0495 32.3136 16.6985 31.0311C16.9142 30.6065 16.7433 30.087 16.3188 29.8712C16.2523 29.8384 16.1841 29.8151 16.1151 29.7996C15.2478 29.6072 14.4745 29.0988 13.9179 28.423C13.3612 27.7473 13.0212 26.9042 13.0212 26.0437C13.0212 25.7123 13.073 25.3852 13.1765 25.0737C13.891 22.9136 15.2322 21.0942 17.0549 19.8127C18.8837 18.5286 21.1017 17.8493 23.4707 17.8493C23.5319 17.8493 24.0368 17.8718 24.2293 17.9063C24.6004 17.9719 24.9577 17.7898 25.132 17.4791L25.1329 17.48C25.8423 16.2217 26.9297 14.8314 28.1949 13.5653C29.0337 12.7265 29.9045 11.9826 30.7572 11.3706C30.7753 11.3586 30.7926 11.3465 30.809 11.3335C31.4736 10.8597 32.1268 10.467 32.7439 10.1736C34.0591 9.54791 34.7988 9.5816 34.9739 9.75762C35.15 9.93365 35.1845 10.6724 34.5579 11.9885C33.8796 13.4125 32.6756 15.0281 31.1671 16.5367C30.0452 17.6586 28.855 18.62 27.7167 19.3234L27.7245 19.3363C27.3801 19.4675 27.1687 19.7955 27.1687 20.1433C27.1687 20.2451 27.1868 20.3487 27.2248 20.4497C27.381 20.8605 27.4604 21.2773 27.4604 21.6899C27.4604 22.0213 27.4078 22.3484 27.3051 22.6599C27.0652 23.3866 26.7528 24.0778 26.3765 24.7165C26.1348 25.1273 26.2721 25.6563 26.6828 25.8979C26.82 25.9791 26.9711 26.017 27.1196 26.017H37.8521C42.8861 26.017 46.9811 30.1129 46.9811 35.1469C46.981 37.2828 45.8661 39.5224 45.8531 39.5499ZM48.0927 39.4335C48.0073 39.4335 47.9218 39.4274 47.8372 39.4171C48.3653 38.1829 48.6605 36.8521 48.7019 35.4765C49.5217 35.7363 50.1181 36.5035 50.1181 37.4088C50.1181 38.5256 49.2093 39.4335 48.0927 39.4335Z" fill="white"/>
</svg>
